<svg width="100" height="100" viewBox="0 0 100 100" fill="none" xmlns="http://www.w3.org/2000/svg">
    <g filter="url(#filter0_i_15_2)">
        <path
            d="M42.3516 9.73221C47.1366 4.34589 53.6425 5.20314 57.8056 9.73221L60.3444 12.6716C61.2234 13.628 62.4956 14.124 63.79 14.015L68.3037 12.6716C74.4559 11.3527 80.0469 15.9426 80.0469 23.0715V25.757C80.1772 27.223 81.4578 28.2168 82.7803 28.8627L86.8584 30.5666C92.7572 33.4475 94.2312 40.2835 89.9344 46.0206L88.7137 47.6319C87.6187 49.1122 87.8437 51.055 88.9334 52.5394L90.1541 54.2481C94.5975 59.7169 92.0922 67.22 85.8156 69.8413L82.3053 71.3075C80.9828 71.8597 80.465 72.8075 80.2178 74.2191L79.9734 78.8088C79.1191 85.1075 73.5247 87.9528 69.0359 87.3172L63.6894 85.8888C62.4053 85.7069 60.8084 86.1331 59.9541 87.4756L58.0253 90.1125C53.24 95.5081 46.7816 94.611 43.5234 91.4553L39.9653 87.1463C39.0337 86.2441 37.8594 85.4738 36.4534 86.0044L31.0722 87.4756C26.6294 88.105 21.3981 84.6894 20.5607 80.2813L19.9393 73.9016C19.6871 72.5738 18.8115 71.4485 17.5864 70.8775L13.8115 69.5803C8.13478 66.935 6.23347 60.5306 9.49287 55.1828L11.6205 52.2406C12.4752 50.8385 12.4345 49.0669 11.5165 47.7053L9.92959 45.4591C5.4375 39.0628 8.54331 31.9131 15.1999 29.7698L16.668 29.2971C18.2884 28.7753 19.8537 27.4296 19.9883 25.7326L20.3153 21.6131C20.8459 14.9264 26.9475 11.0895 33.3653 13.0405L35.4422 13.6719C37.4441 14.4532 39.0128 13.7878 40.1053 12.5977L42.3516 9.73221Z"
            fill="url(#paint0_linear_15_2)" />
        <path
            d="M42.3516 9.73221C47.1366 4.34589 53.6425 5.20314 57.8056 9.73221L60.3444 12.6716C61.2234 13.628 62.4956 14.124 63.79 14.015L68.3037 12.6716C74.4559 11.3527 80.0469 15.9426 80.0469 23.0715V25.757C80.1772 27.223 81.4578 28.2168 82.7803 28.8627L86.8584 30.5666C92.7572 33.4475 94.2312 40.2835 89.9344 46.0206L88.7137 47.6319C87.6187 49.1122 87.8437 51.055 88.9334 52.5394L90.1541 54.2481C94.5975 59.7169 92.0922 67.22 85.8156 69.8413L82.3053 71.3075C80.9828 71.8597 80.465 72.8075 80.2178 74.2191L79.9734 78.8088C79.1191 85.1075 73.5247 87.9528 69.0359 87.3172L63.6894 85.8888C62.4053 85.7069 60.8084 86.1331 59.9541 87.4756L58.0253 90.1125C53.24 95.5081 46.7816 94.611 43.5234 91.4553L39.9653 87.1463C39.0337 86.2441 37.8594 85.4738 36.4534 86.0044L31.0722 87.4756C26.6294 88.105 21.3981 84.6894 20.5607 80.2813L19.9393 73.9016C19.6871 72.5738 18.8115 71.4485 17.5864 70.8775L13.8115 69.5803C8.13478 66.935 6.23347 60.5306 9.49287 55.1828L11.6205 52.2406C12.4752 50.8385 12.4345 49.0669 11.5165 47.7053L9.92959 45.4591C5.4375 39.0628 8.54331 31.9131 15.1999 29.7698L16.668 29.2971C18.2884 28.7753 19.8537 27.4296 19.9883 25.7326L20.3153 21.6131C20.8459 14.9264 26.9475 11.0895 33.3653 13.0405L35.4422 13.6719C37.4441 14.4532 39.0128 13.7878 40.1053 12.5977L42.3516 9.73221Z"
            fill="url(#paint1_radial_15_2)" />
        <path
            d="M42.3516 9.73221C47.1366 4.34589 53.6425 5.20314 57.8056 9.73221L60.3444 12.6716C61.2234 13.628 62.4956 14.124 63.79 14.015L68.3037 12.6716C74.4559 11.3527 80.0469 15.9426 80.0469 23.0715V25.757C80.1772 27.223 81.4578 28.2168 82.7803 28.8627L86.8584 30.5666C92.7572 33.4475 94.2312 40.2835 89.9344 46.0206L88.7137 47.6319C87.6187 49.1122 87.8437 51.055 88.9334 52.5394L90.1541 54.2481C94.5975 59.7169 92.0922 67.22 85.8156 69.8413L82.3053 71.3075C80.9828 71.8597 80.465 72.8075 80.2178 74.2191L79.9734 78.8088C79.1191 85.1075 73.5247 87.9528 69.0359 87.3172L63.6894 85.8888C62.4053 85.7069 60.8084 86.1331 59.9541 87.4756L58.0253 90.1125C53.24 95.5081 46.7816 94.611 43.5234 91.4553L39.9653 87.1463C39.0337 86.2441 37.8594 85.4738 36.4534 86.0044L31.0722 87.4756C26.6294 88.105 21.3981 84.6894 20.5607 80.2813L19.9393 73.9016C19.6871 72.5738 18.8115 71.4485 17.5864 70.8775L13.8115 69.5803C8.13478 66.935 6.23347 60.5306 9.49287 55.1828L11.6205 52.2406C12.4752 50.8385 12.4345 49.0669 11.5165 47.7053L9.92959 45.4591C5.4375 39.0628 8.54331 31.9131 15.1999 29.7698L16.668 29.2971C18.2884 28.7753 19.8537 27.4296 19.9883 25.7326L20.3153 21.6131C20.8459 14.9264 26.9475 11.0895 33.3653 13.0405L35.4422 13.6719C37.4441 14.4532 39.0128 13.7878 40.1053 12.5977L42.3516 9.73221Z"
            fill="url(#paint2_radial_15_2)" />
        <path
            d="M42.3516 9.73221C47.1366 4.34589 53.6425 5.20314 57.8056 9.73221L60.3444 12.6716C61.2234 13.628 62.4956 14.124 63.79 14.015L68.3037 12.6716C74.4559 11.3527 80.0469 15.9426 80.0469 23.0715V25.757C80.1772 27.223 81.4578 28.2168 82.7803 28.8627L86.8584 30.5666C92.7572 33.4475 94.2312 40.2835 89.9344 46.0206L88.7137 47.6319C87.6187 49.1122 87.8437 51.055 88.9334 52.5394L90.1541 54.2481C94.5975 59.7169 92.0922 67.22 85.8156 69.8413L82.3053 71.3075C80.9828 71.8597 80.465 72.8075 80.2178 74.2191L79.9734 78.8088C79.1191 85.1075 73.5247 87.9528 69.0359 87.3172L63.6894 85.8888C62.4053 85.7069 60.8084 86.1331 59.9541 87.4756L58.0253 90.1125C53.24 95.5081 46.7816 94.611 43.5234 91.4553L39.9653 87.1463C39.0337 86.2441 37.8594 85.4738 36.4534 86.0044L31.0722 87.4756C26.6294 88.105 21.3981 84.6894 20.5607 80.2813L19.9393 73.9016C19.6871 72.5738 18.8115 71.4485 17.5864 70.8775L13.8115 69.5803C8.13478 66.935 6.23347 60.5306 9.49287 55.1828L11.6205 52.2406C12.4752 50.8385 12.4345 49.0669 11.5165 47.7053L9.92959 45.4591C5.4375 39.0628 8.54331 31.9131 15.1999 29.7698L16.668 29.2971C18.2884 28.7753 19.8537 27.4296 19.9883 25.7326L20.3153 21.6131C20.8459 14.9264 26.9475 11.0895 33.3653 13.0405L35.4422 13.6719C37.4441 14.4532 39.0128 13.7878 40.1053 12.5977L42.3516 9.73221Z"
            fill="url(#paint3_radial_15_2)" />
        <path
            d="M42.3516 9.73221C47.1366 4.34589 53.6425 5.20314 57.8056 9.73221L60.3444 12.6716C61.2234 13.628 62.4956 14.124 63.79 14.015L68.3037 12.6716C74.4559 11.3527 80.0469 15.9426 80.0469 23.0715V25.757C80.1772 27.223 81.4578 28.2168 82.7803 28.8627L86.8584 30.5666C92.7572 33.4475 94.2312 40.2835 89.9344 46.0206L88.7137 47.6319C87.6187 49.1122 87.8437 51.055 88.9334 52.5394L90.1541 54.2481C94.5975 59.7169 92.0922 67.22 85.8156 69.8413L82.3053 71.3075C80.9828 71.8597 80.465 72.8075 80.2178 74.2191L79.9734 78.8088C79.1191 85.1075 73.5247 87.9528 69.0359 87.3172L63.6894 85.8888C62.4053 85.7069 60.8084 86.1331 59.9541 87.4756L58.0253 90.1125C53.24 95.5081 46.7816 94.611 43.5234 91.4553L39.9653 87.1463C39.0337 86.2441 37.8594 85.4738 36.4534 86.0044L31.0722 87.4756C26.6294 88.105 21.3981 84.6894 20.5607 80.2813L19.9393 73.9016C19.6871 72.5738 18.8115 71.4485 17.5864 70.8775L13.8115 69.5803C8.13478 66.935 6.23347 60.5306 9.49287 55.1828L11.6205 52.2406C12.4752 50.8385 12.4345 49.0669 11.5165 47.7053L9.92959 45.4591C5.4375 39.0628 8.54331 31.9131 15.1999 29.7698L16.668 29.2971C18.2884 28.7753 19.8537 27.4296 19.9883 25.7326L20.3153 21.6131C20.8459 14.9264 26.9475 11.0895 33.3653 13.0405L35.4422 13.6719C37.4441 14.4532 39.0128 13.7878 40.1053 12.5977L42.3516 9.73221Z"
            fill="url(#paint4_radial_15_2)" />
        <path
            d="M42.3516 9.73221C47.1366 4.34589 53.6425 5.20314 57.8056 9.73221L60.3444 12.6716C61.2234 13.628 62.4956 14.124 63.79 14.015L68.3037 12.6716C74.4559 11.3527 80.0469 15.9426 80.0469 23.0715V25.757C80.1772 27.223 81.4578 28.2168 82.7803 28.8627L86.8584 30.5666C92.7572 33.4475 94.2312 40.2835 89.9344 46.0206L88.7137 47.6319C87.6187 49.1122 87.8437 51.055 88.9334 52.5394L90.1541 54.2481C94.5975 59.7169 92.0922 67.22 85.8156 69.8413L82.3053 71.3075C80.9828 71.8597 80.465 72.8075 80.2178 74.2191L79.9734 78.8088C79.1191 85.1075 73.5247 87.9528 69.0359 87.3172L63.6894 85.8888C62.4053 85.7069 60.8084 86.1331 59.9541 87.4756L58.0253 90.1125C53.24 95.5081 46.7816 94.611 43.5234 91.4553L39.9653 87.1463C39.0337 86.2441 37.8594 85.4738 36.4534 86.0044L31.0722 87.4756C26.6294 88.105 21.3981 84.6894 20.5607 80.2813L19.9393 73.9016C19.6871 72.5738 18.8115 71.4485 17.5864 70.8775L13.8115 69.5803C8.13478 66.935 6.23347 60.5306 9.49287 55.1828L11.6205 52.2406C12.4752 50.8385 12.4345 49.0669 11.5165 47.7053L9.92959 45.4591C5.4375 39.0628 8.54331 31.9131 15.1999 29.7698L16.668 29.2971C18.2884 28.7753 19.8537 27.4296 19.9883 25.7326L20.3153 21.6131C20.8459 14.9264 26.9475 11.0895 33.3653 13.0405L35.4422 13.6719C37.4441 14.4532 39.0128 13.7878 40.1053 12.5977L42.3516 9.73221Z"
            fill="url(#paint5_radial_15_2)" />
        <path
            d="M42.3516 9.73221C47.1366 4.34589 53.6425 5.20314 57.8056 9.73221L60.3444 12.6716C61.2234 13.628 62.4956 14.124 63.79 14.015L68.3037 12.6716C74.4559 11.3527 80.0469 15.9426 80.0469 23.0715V25.757C80.1772 27.223 81.4578 28.2168 82.7803 28.8627L86.8584 30.5666C92.7572 33.4475 94.2312 40.2835 89.9344 46.0206L88.7137 47.6319C87.6187 49.1122 87.8437 51.055 88.9334 52.5394L90.1541 54.2481C94.5975 59.7169 92.0922 67.22 85.8156 69.8413L82.3053 71.3075C80.9828 71.8597 80.465 72.8075 80.2178 74.2191L79.9734 78.8088C79.1191 85.1075 73.5247 87.9528 69.0359 87.3172L63.6894 85.8888C62.4053 85.7069 60.8084 86.1331 59.9541 87.4756L58.0253 90.1125C53.24 95.5081 46.7816 94.611 43.5234 91.4553L39.9653 87.1463C39.0337 86.2441 37.8594 85.4738 36.4534 86.0044L31.0722 87.4756C26.6294 88.105 21.3981 84.6894 20.5607 80.2813L19.9393 73.9016C19.6871 72.5738 18.8115 71.4485 17.5864 70.8775L13.8115 69.5803C8.13478 66.935 6.23347 60.5306 9.49287 55.1828L11.6205 52.2406C12.4752 50.8385 12.4345 49.0669 11.5165 47.7053L9.92959 45.4591C5.4375 39.0628 8.54331 31.9131 15.1999 29.7698L16.668 29.2971C18.2884 28.7753 19.8537 27.4296 19.9883 25.7326L20.3153 21.6131C20.8459 14.9264 26.9475 11.0895 33.3653 13.0405L35.4422 13.6719C37.4441 14.4532 39.0128 13.7878 40.1053 12.5977L42.3516 9.73221Z"
            fill="url(#paint6_radial_15_2)" />
        <path
            d="M42.3516 9.73221C47.1366 4.34589 53.6425 5.20314 57.8056 9.73221L60.3444 12.6716C61.2234 13.628 62.4956 14.124 63.79 14.015L68.3037 12.6716C74.4559 11.3527 80.0469 15.9426 80.0469 23.0715V25.757C80.1772 27.223 81.4578 28.2168 82.7803 28.8627L86.8584 30.5666C92.7572 33.4475 94.2312 40.2835 89.9344 46.0206L88.7137 47.6319C87.6187 49.1122 87.8437 51.055 88.9334 52.5394L90.1541 54.2481C94.5975 59.7169 92.0922 67.22 85.8156 69.8413L82.3053 71.3075C80.9828 71.8597 80.465 72.8075 80.2178 74.2191L79.9734 78.8088C79.1191 85.1075 73.5247 87.9528 69.0359 87.3172L63.6894 85.8888C62.4053 85.7069 60.8084 86.1331 59.9541 87.4756L58.0253 90.1125C53.24 95.5081 46.7816 94.611 43.5234 91.4553L39.9653 87.1463C39.0337 86.2441 37.8594 85.4738 36.4534 86.0044L31.0722 87.4756C26.6294 88.105 21.3981 84.6894 20.5607 80.2813L19.9393 73.9016C19.6871 72.5738 18.8115 71.4485 17.5864 70.8775L13.8115 69.5803C8.13478 66.935 6.23347 60.5306 9.49287 55.1828L11.6205 52.2406C12.4752 50.8385 12.4345 49.0669 11.5165 47.7053L9.92959 45.4591C5.4375 39.0628 8.54331 31.9131 15.1999 29.7698L16.668 29.2971C18.2884 28.7753 19.8537 27.4296 19.9883 25.7326L20.3153 21.6131C20.8459 14.9264 26.9475 11.0895 33.3653 13.0405L35.4422 13.6719C37.4441 14.4532 39.0128 13.7878 40.1053 12.5977L42.3516 9.73221Z"
            fill="url(#paint7_radial_15_2)" />
        <path
            d="M42.3516 9.73221C47.1366 4.34589 53.6425 5.20314 57.8056 9.73221L60.3444 12.6716C61.2234 13.628 62.4956 14.124 63.79 14.015L68.3037 12.6716C74.4559 11.3527 80.0469 15.9426 80.0469 23.0715V25.757C80.1772 27.223 81.4578 28.2168 82.7803 28.8627L86.8584 30.5666C92.7572 33.4475 94.2312 40.2835 89.9344 46.0206L88.7137 47.6319C87.6187 49.1122 87.8437 51.055 88.9334 52.5394L90.1541 54.2481C94.5975 59.7169 92.0922 67.22 85.8156 69.8413L82.3053 71.3075C80.9828 71.8597 80.465 72.8075 80.2178 74.2191L79.9734 78.8088C79.1191 85.1075 73.5247 87.9528 69.0359 87.3172L63.6894 85.8888C62.4053 85.7069 60.8084 86.1331 59.9541 87.4756L58.0253 90.1125C53.24 95.5081 46.7816 94.611 43.5234 91.4553L39.9653 87.1463C39.0337 86.2441 37.8594 85.4738 36.4534 86.0044L31.0722 87.4756C26.6294 88.105 21.3981 84.6894 20.5607 80.2813L19.9393 73.9016C19.6871 72.5738 18.8115 71.4485 17.5864 70.8775L13.8115 69.5803C8.13478 66.935 6.23347 60.5306 9.49287 55.1828L11.6205 52.2406C12.4752 50.8385 12.4345 49.0669 11.5165 47.7053L9.92959 45.4591C5.4375 39.0628 8.54331 31.9131 15.1999 29.7698L16.668 29.2971C18.2884 28.7753 19.8537 27.4296 19.9883 25.7326L20.3153 21.6131C20.8459 14.9264 26.9475 11.0895 33.3653 13.0405L35.4422 13.6719C37.4441 14.4532 39.0128 13.7878 40.1053 12.5977L42.3516 9.73221Z"
            fill="url(#paint8_radial_15_2)" />
        <path
            d="M42.3516 9.73221C47.1366 4.34589 53.6425 5.20314 57.8056 9.73221L60.3444 12.6716C61.2234 13.628 62.4956 14.124 63.79 14.015L68.3037 12.6716C74.4559 11.3527 80.0469 15.9426 80.0469 23.0715V25.757C80.1772 27.223 81.4578 28.2168 82.7803 28.8627L86.8584 30.5666C92.7572 33.4475 94.2312 40.2835 89.9344 46.0206L88.7137 47.6319C87.6187 49.1122 87.8437 51.055 88.9334 52.5394L90.1541 54.2481C94.5975 59.7169 92.0922 67.22 85.8156 69.8413L82.3053 71.3075C80.9828 71.8597 80.465 72.8075 80.2178 74.2191L79.9734 78.8088C79.1191 85.1075 73.5247 87.9528 69.0359 87.3172L63.6894 85.8888C62.4053 85.7069 60.8084 86.1331 59.9541 87.4756L58.0253 90.1125C53.24 95.5081 46.7816 94.611 43.5234 91.4553L39.9653 87.1463C39.0337 86.2441 37.8594 85.4738 36.4534 86.0044L31.0722 87.4756C26.6294 88.105 21.3981 84.6894 20.5607 80.2813L19.9393 73.9016C19.6871 72.5738 18.8115 71.4485 17.5864 70.8775L13.8115 69.5803C8.13478 66.935 6.23347 60.5306 9.49287 55.1828L11.6205 52.2406C12.4752 50.8385 12.4345 49.0669 11.5165 47.7053L9.92959 45.4591C5.4375 39.0628 8.54331 31.9131 15.1999 29.7698L16.668 29.2971C18.2884 28.7753 19.8537 27.4296 19.9883 25.7326L20.3153 21.6131C20.8459 14.9264 26.9475 11.0895 33.3653 13.0405L35.4422 13.6719C37.4441 14.4532 39.0128 13.7878 40.1053 12.5977L42.3516 9.73221Z"
            fill="url(#paint9_radial_15_2)" />
    </g>
    <g filter="url(#filter1_d_15_2)">
        <path
            d="M50.1135 83.4919C68.6547 83.4919 83.685 68.4612 83.685 49.92C83.685 31.3787 68.6547 16.3483 50.1135 16.3483C31.5722 16.3483 16.5417 31.3787 16.5417 49.92C16.5417 68.4612 31.5722 83.4919 50.1135 83.4919Z"
            fill="url(#paint10_radial_15_2)" />
    </g>
    <g opacity="0.44" filter="url(#filter2_f_15_2)">
        <path
            d="M29.457 61.0619C34.5656 61.0619 38.7069 56.9204 38.7069 51.8119C38.7069 46.7032 34.5656 42.5619 29.457 42.5619C24.3484 42.5619 20.207 46.7032 20.207 51.8119C20.207 56.9204 24.3484 61.0619 29.457 61.0619Z"
            fill="url(#paint11_radial_15_2)" />
    </g>
    <g opacity="0.44" filter="url(#filter3_f_15_2)">
        <path
            d="M70.7697 61.0619C75.8785 61.0619 80.0197 56.9204 80.0197 51.8119C80.0197 46.7032 75.8785 42.5619 70.7697 42.5619C65.6613 42.5619 61.5197 46.7032 61.5197 51.8119C61.5197 56.9204 65.6613 61.0619 70.7697 61.0619Z"
            fill="url(#paint12_radial_15_2)" />
    </g>
    <g filter="url(#filter4_f_15_2)">
        <path fill-rule="evenodd" clip-rule="evenodd"
            d="M34.5969 56.5331C35.5122 55.6178 36.9962 55.6178 37.9112 56.5331C44.6525 63.2741 55.5747 63.2741 62.3156 56.5331C63.2309 55.6178 64.715 55.6178 65.63 56.5331C66.5453 57.4484 66.5453 58.9325 65.63 59.8478C57.0587 68.4194 43.1684 68.4194 34.5969 59.8478C33.6816 58.9325 33.6816 57.4484 34.5969 56.5331Z"
            fill="#D6961E" />
    </g>
    <g filter="url(#filter5_i_15_2)">
        <path fill-rule="evenodd" clip-rule="evenodd"
            d="M35.3934 55.3731C36.3087 54.4578 37.7928 54.4578 38.7081 55.3731C45.449 62.1141 56.3712 62.1141 63.1122 55.3731C64.0275 54.4578 65.5115 54.4578 66.4269 55.3731C67.3422 56.2884 67.3422 57.7725 66.4269 58.6878C57.8553 67.2594 43.965 67.2594 35.3934 58.6878C34.4781 57.7725 34.4781 56.2884 35.3934 55.3731Z"
            fill="url(#paint13_linear_15_2)" />
        <path fill-rule="evenodd" clip-rule="evenodd"
            d="M35.3934 55.3731C36.3087 54.4578 37.7928 54.4578 38.7081 55.3731C45.449 62.1141 56.3712 62.1141 63.1122 55.3731C64.0275 54.4578 65.5115 54.4578 66.4269 55.3731C67.3422 56.2884 67.3422 57.7725 66.4269 58.6878C57.8553 67.2594 43.965 67.2594 35.3934 58.6878C34.4781 57.7725 34.4781 56.2884 35.3934 55.3731Z"
            fill="url(#paint14_linear_15_2)" />
    </g>
    <g filter="url(#filter6_f_15_2)">
        <path d="M37.1597 57.1044C41.6612 61.3187 53.4422 67.2187 64.5528 57.1044"
            stroke="url(#paint15_linear_15_2)" stroke-width="1.70672" stroke-linecap="round" />
        <path d="M37.1597 57.1044C41.6612 61.3187 53.4422 67.2187 64.5528 57.1044"
            stroke="url(#paint16_linear_15_2)" stroke-width="1.70672" stroke-linecap="round" />
    </g>
    <g filter="url(#filter7_f_15_2)">
        <path fill-rule="evenodd" clip-rule="evenodd"
            d="M37.1022 40.1244C35.4141 40.1244 33.9884 41.1506 33.4162 42.6088C32.9812 43.7175 31.7297 44.2638 30.6207 43.8284C29.5119 43.3934 28.9658 42.1419 29.4009 41.0331C30.6116 37.9475 33.6144 35.8109 37.1022 35.8109C40.7609 35.8109 43.8706 38.1859 44.9594 41.4913C45.3322 42.6225 44.7172 43.8416 43.5856 44.2144C42.4544 44.5872 41.2353 43.9719 40.8625 42.8406C40.3409 41.2575 38.8497 40.1244 37.1022 40.1244Z"
            fill="#C68D0F" />
    </g>
    <path fill-rule="evenodd" clip-rule="evenodd"
        d="M37.5197 39.5619C35.6853 39.5619 34.1359 40.6772 33.5141 42.2619C33.0412 43.4666 31.6809 44.0603 30.4761 43.5875C29.2712 43.1147 28.6777 41.7544 29.1505 40.5494C30.4662 37.1966 33.7294 34.8744 37.5197 34.8744C41.4956 34.8744 44.875 37.4553 46.0584 41.0472C46.4634 42.2769 45.795 43.6016 44.5656 44.0066C43.3362 44.4116 42.0112 43.7435 41.6062 42.5138C41.0394 40.7931 39.4187 39.5619 37.5197 39.5619Z"
        fill="url(#paint17_linear_15_2)" />
    <g filter="url(#filter8_f_15_2)">
        <path fill-rule="evenodd" clip-rule="evenodd"
            d="M64.1628 40.1244C62.4747 40.1244 61.0488 41.1506 60.4769 42.6088C60.0416 43.7175 58.79 44.2638 57.6813 43.8284C56.5725 43.3934 56.0263 42.1419 56.4616 41.0331C57.6722 37.9475 60.6747 35.8109 64.1628 35.8109C67.8213 35.8109 70.9313 38.1859 72.02 41.4913C72.3925 42.6225 71.7775 43.8416 70.6463 44.2144C69.515 44.5872 68.2956 43.9719 67.9231 42.8406C67.4016 41.2575 65.9103 40.1244 64.1628 40.1244Z"
            fill="#C68D0F" />
    </g>
    <g filter="url(#filter9_i_15_2)">
        <path fill-rule="evenodd" clip-rule="evenodd"
            d="M64.4572 39.5619C62.6228 39.5619 61.0735 40.6772 60.4516 42.2619C59.9788 43.4666 58.6185 44.0603 57.4138 43.5875C56.2088 43.1147 55.615 41.7544 56.0878 40.5494C57.4038 37.1966 60.6669 34.8744 64.4572 34.8744C68.4331 34.8744 71.8125 37.4553 72.996 41.0472C73.401 42.2769 72.7325 43.6016 71.5031 44.0066C70.2738 44.4116 68.9488 43.7435 68.5438 42.5138C67.9769 40.7931 66.3563 39.5619 64.4572 39.5619Z"
            fill="#422E51" />
    </g>
    <g filter="url(#filter10_f_15_2)">
        <path d="M44.2578 42.1413C43.9097 40.0516 41.7269 36.0578 35.7825 36.801"
            stroke="url(#paint18_linear_15_2)" stroke-width="1.42226" stroke-linecap="round" />
    </g>
    <g opacity="0.5" filter="url(#filter11_f_15_2)">
        <path
            d="M58.6006 40.9775C59.175 39.6178 61.1631 36.9328 64.5181 37.0707C67.8734 37.2085 70.5316 39.5219 71.2403 40.9775"
            stroke="url(#paint19_linear_15_2)" stroke-width="1.42226" stroke-linecap="round" />
    </g>
    <defs>
        <filter id="filter0_i_15_2" x="7.81841" y="5.29589" width="85.301" height="88.697"
            filterUnits="userSpaceOnUse" color-interpolation-filters="sRGB">
            <feFlood flood-opacity="0" result="BackgroundImageFix" />
            <feBlend mode="normal" in="SourceGraphic" in2="BackgroundImageFix" result="shape" />
            <feColorMatrix in="SourceAlpha" type="matrix"
                values="0 0 0 0 0 0 0 0 0 0 0 0 0 0 0 0 0 0 127 0" result="hardAlpha" />
            <feOffset dx="0.711132" dy="-0.711132" />
            <feGaussianBlur stdDeviation="0.711132" />
            <feComposite in2="hardAlpha" operator="arithmetic" k2="-1" k3="1" />
            <feColorMatrix type="matrix"
                values="0 0 0 0 0.85098 0 0 0 0 0.447059 0 0 0 0 0.196078 0 0 0 1 0" />
            <feBlend mode="normal" in2="shape" result="effect1_innerShadow_15_2" />
        </filter>
        <filter id="filter1_d_15_2" x="14.835" y="16.3483" width="68.8501" height="68.8503"
            filterUnits="userSpaceOnUse" color-interpolation-filters="sRGB">
            <feFlood flood-opacity="0" result="BackgroundImageFix" />
            <feColorMatrix in="SourceAlpha" type="matrix"
                values="0 0 0 0 0 0 0 0 0 0 0 0 0 0 0 0 0 0 127 0" result="hardAlpha" />
            <feOffset dx="-0.853358" dy="0.853358" />
            <feGaussianBlur stdDeviation="0.426679" />
            <feComposite in2="hardAlpha" operator="out" />
            <feColorMatrix type="matrix"
                values="0 0 0 0 0.921569 0 0 0 0 0.47451 0 0 0 0 0.133333 0 0 0 1 0" />
            <feBlend mode="normal" in2="BackgroundImageFix" result="effect1_dropShadow_15_2" />
            <feBlend mode="normal" in="SourceGraphic" in2="effect1_dropShadow_15_2" result="shape" />
        </filter>
        <filter id="filter2_f_15_2" x="18.7848" y="41.1397" width="21.3444" height="21.3446"
            filterUnits="userSpaceOnUse" color-interpolation-filters="sRGB">
            <feFlood flood-opacity="0" result="BackgroundImageFix" />
            <feBlend mode="normal" in="SourceGraphic" in2="BackgroundImageFix" result="shape" />
            <feGaussianBlur stdDeviation="0.711132" result="effect1_foregroundBlur_15_2" />
        </filter>
        <filter id="filter3_f_15_2" x="60.0975" y="41.1397" width="21.3445" height="21.3446"
            filterUnits="userSpaceOnUse" color-interpolation-filters="sRGB">
            <feFlood flood-opacity="0" result="BackgroundImageFix" />
            <feBlend mode="normal" in="SourceGraphic" in2="BackgroundImageFix" result="shape" />
            <feGaussianBlur stdDeviation="0.711132" result="effect1_foregroundBlur_15_2" />
        </filter>
        <filter id="filter4_f_15_2" x="32.4881" y="54.4244" width="35.2506" height="13.2744"
            filterUnits="userSpaceOnUse" color-interpolation-filters="sRGB">
            <feFlood flood-opacity="0" result="BackgroundImageFix" />
            <feBlend mode="normal" in="SourceGraphic" in2="BackgroundImageFix" result="shape" />
            <feGaussianBlur stdDeviation="0.711132" result="effect1_foregroundBlur_15_2" />
        </filter>
        <filter id="filter5_i_15_2" x="34.7069" y="53.9755" width="33.1175" height="11.141"
            filterUnits="userSpaceOnUse" color-interpolation-filters="sRGB">
            <feFlood flood-opacity="0" result="BackgroundImageFix" />
            <feBlend mode="normal" in="SourceGraphic" in2="BackgroundImageFix" result="shape" />
            <feColorMatrix in="SourceAlpha" type="matrix"
                values="0 0 0 0 0 0 0 0 0 0 0 0 0 0 0 0 0 0 127 0" result="hardAlpha" />
            <feOffset dx="0.711132" dy="-0.711132" />
            <feGaussianBlur stdDeviation="1.42226" />
            <feComposite in2="hardAlpha" operator="arithmetic" k2="-1" k3="1" />
            <feColorMatrix type="matrix"
                values="0 0 0 0 0.203922 0 0 0 0 0.168627 0 0 0 0 0.180392 0 0 0 1 0" />
            <feBlend mode="normal" in2="shape" result="effect1_innerShadow_15_2" />
        </filter>
        <filter id="filter6_f_15_2" x="34.5996" y="54.5443" width="32.5133" height="10.7048"
            filterUnits="userSpaceOnUse" color-interpolation-filters="sRGB">
            <feFlood flood-opacity="0" result="BackgroundImageFix" />
            <feBlend mode="normal" in="SourceGraphic" in2="BackgroundImageFix" result="shape" />
            <feGaussianBlur stdDeviation="0.853358" result="effect1_foregroundBlur_15_2" />
        </filter>
        <filter id="filter7_f_15_2" x="28.1135" y="34.6731" width="18.0926" height="10.788"
            filterUnits="userSpaceOnUse" color-interpolation-filters="sRGB">
            <feFlood flood-opacity="0" result="BackgroundImageFix" />
            <feBlend mode="normal" in="SourceGraphic" in2="BackgroundImageFix" result="shape" />
            <feGaussianBlur stdDeviation="0.568905" result="effect1_foregroundBlur_15_2" />
        </filter>
        <filter id="filter8_f_15_2" x="55.174" y="34.6731" width="18.0926" height="10.788"
            filterUnits="userSpaceOnUse" color-interpolation-filters="sRGB">
            <feFlood flood-opacity="0" result="BackgroundImageFix" />
            <feBlend mode="normal" in="SourceGraphic" in2="BackgroundImageFix" result="shape" />
            <feGaussianBlur stdDeviation="0.568905" result="effect1_foregroundBlur_15_2" />
        </filter>
        <filter id="filter9_i_15_2" x="55.9253" y="34.4477" width="18.3268" height="9.6772"
            filterUnits="userSpaceOnUse" color-interpolation-filters="sRGB">
            <feFlood flood-opacity="0" result="BackgroundImageFix" />
            <feBlend mode="normal" in="SourceGraphic" in2="BackgroundImageFix" result="shape" />
            <feColorMatrix in="SourceAlpha" type="matrix"
                values="0 0 0 0 0 0 0 0 0 0 0 0 0 0 0 0 0 0 127 0" result="hardAlpha" />
            <feOffset dx="1.13781" dy="-0.426679" />
            <feGaussianBlur stdDeviation="0.711132" />
            <feComposite in2="hardAlpha" operator="arithmetic" k2="-1" k3="1" />
            <feColorMatrix type="matrix"
                values="0 0 0 0 0.298039 0 0 0 0 0.196078 0 0 0 0 0.235294 0 0 0 1 0" />
            <feBlend mode="normal" in2="shape" result="effect1_innerShadow_15_2" />
        </filter>
        <filter id="filter10_f_15_2" x="33.6491" y="34.5767" width="12.7423" height="9.69807"
            filterUnits="userSpaceOnUse" color-interpolation-filters="sRGB">
            <feFlood flood-opacity="0" result="BackgroundImageFix" />
            <feBlend mode="normal" in="SourceGraphic" in2="BackgroundImageFix" result="shape" />
            <feGaussianBlur stdDeviation="0.711132" result="effect1_foregroundBlur_15_2" />
        </filter>
        <filter id="filter11_f_15_2" x="56.467" y="34.9321" width="16.9068" height="8.17903"
            filterUnits="userSpaceOnUse" color-interpolation-filters="sRGB">
            <feFlood flood-opacity="0" result="BackgroundImageFix" />
            <feBlend mode="normal" in="SourceGraphic" in2="BackgroundImageFix" result="shape" />
            <feGaussianBlur stdDeviation="0.711132" result="effect1_foregroundBlur_15_2" />
        </filter>
        <linearGradient id="paint0_linear_15_2" x1="76.1875" y1="20.7821" x2="28.2187" y2="81.9835"
            gradientUnits="userSpaceOnUse">
            <stop stop-color="#FC8B23" />
            <stop offset="1" stop-color="#E67639" />
        </linearGradient>
        <radialGradient id="paint1_radial_15_2" cx="0" cy="0" r="1" gradientUnits="userSpaceOnUse"
            gradientTransform="translate(58.1897 10.0646) rotate(138.155) scale(11.8082 10.4185)">
            <stop offset="0.300161" stop-color="#FFA13A" />
            <stop offset="1" stop-color="#FFA13A" stop-opacity="0" />
        </radialGradient>
        <radialGradient id="paint2_radial_15_2" cx="0" cy="0" r="1" gradientUnits="userSpaceOnUse"
            gradientTransform="translate(27.4672 6.3369) rotate(67.8105) scale(18.7723 16.563)">
            <stop offset="0.300161" stop-color="#FF942A" />
            <stop offset="1" stop-color="#FF942A" stop-opacity="0" />
        </radialGradient>
        <radialGradient id="paint3_radial_15_2" cx="0" cy="0" r="1" gradientUnits="userSpaceOnUse"
            gradientTransform="translate(77.8834 23.8503) rotate(-164.745) scale(7.48478 10.3637)">
            <stop offset="0.300161" stop-color="#FFA13D" />
            <stop offset="1" stop-color="#FFA13D" stop-opacity="0" />
        </radialGradient>
        <radialGradient id="paint4_radial_15_2" cx="0" cy="0" r="1" gradientUnits="userSpaceOnUse"
            gradientTransform="translate(92.9819 34.7475) rotate(154.195) scale(13.2709 9.80153)">
            <stop offset="0.300161" stop-color="#FFA13D" />
            <stop offset="1" stop-color="#FFA13D" stop-opacity="0" />
        </radialGradient>
        <radialGradient id="paint5_radial_15_2" cx="0" cy="0" r="1" gradientUnits="userSpaceOnUse"
            gradientTransform="translate(95.8703 57.1985) rotate(-173.379) scale(14.8034 8.34225)">
            <stop offset="0.300161" stop-color="#FFA13D" />
            <stop offset="1" stop-color="#FFA13D" stop-opacity="0" />
        </radialGradient>
        <radialGradient id="paint6_radial_15_2" cx="0" cy="0" r="1" gradientUnits="userSpaceOnUse"
            gradientTransform="translate(82.61 74.3975) rotate(-43.9639) scale(13.4279 12.9362)">
            <stop stop-color="#E0762A" />
            <stop offset="1" stop-color="#E0762A" stop-opacity="0" />
        </radialGradient>
        <radialGradient id="paint7_radial_15_2" cx="0" cy="0" r="1" gradientUnits="userSpaceOnUse"
            gradientTransform="translate(20.3775 71.2466) rotate(-127.747) scale(10.2945 9.91753)">
            <stop stop-color="#E0762A" />
            <stop offset="1" stop-color="#E0762A" stop-opacity="0" />
        </radialGradient>
        <radialGradient id="paint8_radial_15_2" cx="0" cy="0" r="1" gradientUnits="userSpaceOnUse"
            gradientTransform="translate(6.32925 36.4544) rotate(25.2777) scale(10.454 12.6352)">
            <stop stop-color="#F0851D" />
            <stop offset="1" stop-color="#F0851D" stop-opacity="0" />
        </radialGradient>
        <radialGradient id="paint9_radial_15_2" cx="0" cy="0" r="1" gradientUnits="userSpaceOnUse"
            gradientTransform="translate(68.7312 89.3069) rotate(-142.487) scale(12.1883 11.4986)">
            <stop offset="0.336586" stop-color="#E3745B" />
            <stop offset="0.775" stop-color="#E3745B" stop-opacity="0" />
        </radialGradient>
        <radialGradient id="paint10_radial_15_2" cx="0" cy="0" r="1" gradientUnits="userSpaceOnUse"
            gradientTransform="translate(69.1647 30.4705) rotate(130.262) scale(54.6634 55.7028)">
            <stop offset="0.715" stop-color="#FFD13D" />
            <stop offset="1" stop-color="#DCA21C" />
        </radialGradient>
        <radialGradient id="paint11_radial_15_2" cx="0" cy="0" r="1" gradientUnits="userSpaceOnUse"
            gradientTransform="translate(29.442 51.7982) scale(10.0339)">
            <stop offset="0.25" stop-color="#ED501F" />
            <stop offset="0.89541" stop-color="#F18A42" stop-opacity="0" />
        </radialGradient>
        <radialGradient id="paint12_radial_15_2" cx="0" cy="0" r="1" gradientUnits="userSpaceOnUse"
            gradientTransform="translate(70.7547 51.7982) scale(10.0339 10.0339)">
            <stop offset="0.130208" stop-color="#FB6738" />
            <stop offset="0.89541" stop-color="#F18A42" stop-opacity="0" />
        </radialGradient>
        <linearGradient id="paint13_linear_15_2" x1="34.71" y1="59.8866" x2="67.109" y2="59.8866"
            gradientUnits="userSpaceOnUse">
            <stop stop-color="#31243C" />
            <stop offset="1" stop-color="#3F2950" />
        </linearGradient>
        <linearGradient id="paint14_linear_15_2" x1="67.1134" y1="55.9747" x2="65.2203" y2="57.7325"
            gradientUnits="userSpaceOnUse">
            <stop stop-color="#665C6D" />
            <stop offset="1" stop-color="#665C6D" stop-opacity="0" />
        </linearGradient>
        <linearGradient id="paint15_linear_15_2" x1="36.3934" y1="55.3803" x2="50.8562" y2="62.6891"
            gradientUnits="userSpaceOnUse">
            <stop stop-color="#4E4753" />
            <stop offset="1" stop-color="#4E4753" stop-opacity="0" />
        </linearGradient>
        <linearGradient id="paint16_linear_15_2" x1="66.4684" y1="54.9016" x2="48.6531" y2="63.7134"
            gradientUnits="userSpaceOnUse">
            <stop offset="0.0897352" stop-color="#5E5468" />
            <stop offset="1" stop-color="#5E5468" stop-opacity="0" />
        </linearGradient>
        <linearGradient id="paint17_linear_15_2" x1="28.9754" y1="39.4963" x2="46.1772" y2="39.4963"
            gradientUnits="userSpaceOnUse">
            <stop stop-color="#2E2931" />
            <stop offset="1" stop-color="#362A3F" />
        </linearGradient>
        <linearGradient id="paint18_linear_15_2" x1="42.0519" y1="42.1413" x2="34.5322" y2="40.985"
            gradientUnits="userSpaceOnUse">
            <stop stop-color="#524D53" />
            <stop offset="1" stop-color="#5C5463" stop-opacity="0" />
        </linearGradient>
        <linearGradient id="paint19_linear_15_2" x1="67.6531" y1="41.6094" x2="56.5653" y2="40.0122"
            gradientUnits="userSpaceOnUse">
            <stop stop-color="#61556C" />
            <stop offset="1" stop-color="#554A5F" />
        </linearGradient>
    </defs>
</svg>